<?xml version="1.0" encoding="UTF-8"?>
<!-- Generator: Adobe Illustrator 22.0.1, SVG Export Plug-In . SVG Version: 6.00 Build 0)  -->
<svg version="1.1" id="圖層_1" xmlns="http://www.w3.org/2000/svg" xmlns:xlink="http://www.w3.org/1999/xlink" x="0px" y="0px" viewBox="0 0 155 50" style="enable-background:new 0 0 155 50;" xml:space="preserve">
<style type="text/css">
	.st0{fill-rule:evenodd;clip-rule:evenodd;}
</style>
<path id="msi-corporate_x5F_identity-logo-black-cmyk_14_" class="st0" d="M139.7,44l10.4-28.7c0,0-7.8,0-15.6,1.6L124.7,44H139.7z   M137.9,7.6l-2,5.5c7.8-1.6,15.6-1.6,15.6-1.6l2-5.5C153.5,6,145.7,6,137.9,7.6 M83.7,37.2c4.7,0.9,9.5,1.3,14.4,1.3h0  c5.1,0,8.7-1.1,9.1-4.6c0.2-1.6-1.4-2.8-4.2-4.4c-3.2-1.8-6-2.7-8.8-4.6c-2.8-1.9-4-4.8-3.1-8c1.1-3.7,3.7-5.8,7.6-7.8  c4.6-2.3,8.2-3.2,17.1-3.2c5.6,0,11,0.5,16.3,1.6l-1.9,5.2c-4.7-0.9-9.5-1.3-14.4-1.3c-5.1,0-8.7,1.1-9.1,4.6  c-0.2,1.6,1.4,2.8,4.2,4.4c3.2,1.8,6,2.7,8.8,4.6c2.8,1.9,4,4.8,3.1,8c-1.1,3.7-3.7,5.8-7.6,7.8c-4.6,2.3-8.2,3.2-17.1,3.2h0  c-5.6,0-11-0.5-16.3-1.6L83.7,37.2z M61.1,44l8.7-23.9c2.9-8-7.7-5.1-10.1-3.2c-1.9,1.4-5.3,4.7-6.5,8.2l-6.9,19h0h-15L40,20.1  c2.9-8-7.7-5.1-10.1-3.2c-1.9,1.4-5.3,4.7-6.5,8.2l-6.9,19h-15L15.3,6c4.8,0,7.4,1.1,9.5,3.2c0.8,0.8,1.3,1.8,1.6,2.9  c2.8-1.7,5.3-3,7-3.6c3.1-1.2,7-2.5,11.8-2.5c4.8,0,7.4,1.1,9.5,3.2c0.8,0.8,1.3,1.8,1.6,2.9c2.8-1.7,5.3-3,7-3.6  c3.1-1.2,7-2.5,11.8-2.5c4.8,0,7.4,1.1,9.5,3.2c2.2,2.1,2.1,6,1.3,8.2L76.1,44H61.1z"/>
</svg>